<svg width="56" height="56" viewBox="0 0 56 56" fill="none" xmlns="http://www.w3.org/2000/svg">
<path fill-rule="evenodd" clip-rule="evenodd" d="M14.8517 13.4377C13.6438 12.2298 13.6785 10.2401 15.084 9.26914C17.6794 7.47613 20.6656 6.20861 23.889 5.62036C25.5689 5.31377 26.9997 6.69635 26.9997 8.40407V18.3431C26.9997 21.0158 23.7683 22.3543 21.8784 20.4644L14.8517 13.4377ZM11.9784 11.8482C11.9347 11.8915 11.8913 11.935 11.8479 11.9786L11.9784 11.8482ZM13.4375 14.8519C12.2295 13.644 10.2399 13.6788 9.26892 15.0843C7.47591 17.6796 6.2084 20.6658 5.62015 23.8892C5.31356 25.5691 6.69614 26.9999 8.40386 26.9999H18.3429C21.0156 26.9999 22.3541 23.7685 20.4642 21.8786L13.4375 14.8519ZM5.24972 27.9999L5.24998 27.8891L5.24998 28.1108L5.24972 27.9999ZM13.4375 41.1479C12.2295 42.3559 10.2399 42.3211 9.26892 40.9156C7.47591 38.3203 6.2084 35.334 5.62015 32.1107C5.31356 30.4307 6.69614 28.9999 8.40386 28.9999H18.3429C21.0156 28.9999 22.3541 32.2313 20.4642 34.1212L13.4375 41.1479ZM11.8482 44.0215C11.8913 44.065 11.9346 44.1083 11.9781 44.1514L11.8482 44.0215ZM14.8517 42.5622C13.6438 43.7701 13.6785 45.7597 15.084 46.7307C17.6794 48.5237 20.6656 49.7912 23.889 50.3795C25.5689 50.6861 26.9997 49.3035 26.9997 47.5958V37.6568C26.9997 34.9841 23.7683 33.6456 21.8784 35.5355L14.8517 42.5622ZM35.5353 21.8786C33.6454 23.7685 34.9839 26.9999 37.6566 26.9999H47.5956C49.3033 26.9999 50.6859 25.5691 50.3793 23.8892C49.791 20.6658 48.5235 17.6796 46.7305 15.0842C45.7595 13.6788 43.7699 13.644 42.5619 14.8519L35.5353 21.8786ZM41.1477 13.4377C42.3557 12.2298 42.3209 10.2401 40.9154 9.26914C38.32 7.47613 35.3338 6.20861 32.1105 5.62036C30.4305 5.31377 28.9997 6.69635 28.9997 8.40408V18.3431C28.9997 21.0158 32.2311 22.3543 34.121 20.4644L41.1477 13.4377ZM46.7305 40.9156C45.7595 42.3211 43.7699 42.3559 42.5619 41.1479L35.5352 34.1212C33.6454 32.2314 34.9839 28.9999 37.6566 28.9999H47.5956C49.3033 28.9999 50.6859 30.4307 50.3793 32.1107C49.791 35.334 48.5235 38.3202 46.7305 40.9156ZM34.121 35.5355C32.2311 33.6456 28.9997 34.9841 28.9997 37.6568V47.5958C28.9997 49.3035 30.4305 50.6861 32.1105 50.3795C35.3338 49.7912 38.32 48.5237 40.9154 46.7307C42.3209 45.7597 42.3557 43.7701 41.1477 42.5622L34.121 35.5355Z" fill="#6A54FF"/>
<circle cx="27.9997" cy="5.25" r="3.75" fill="#57E1FF" stroke="black"/>
<circle cx="27.9997" cy="50.75" r="3.75" fill="#57E1FF" stroke="black"/>
<circle cx="11.9131" cy="11.9135" r="3.75" transform="rotate(-45 11.9131 11.9135)" fill="#57E1FF" stroke="black"/>
<circle cx="44.0865" cy="44.0865" r="3.75" transform="rotate(-45 44.0865 44.0865)" fill="#57E1FF" stroke="black"/>
<circle cx="5.25" cy="28" r="3.75" transform="rotate(-90 5.25 28)" fill="#57E1FF" stroke="black"/>
<circle cx="50.7497" cy="28" r="3.75" transform="rotate(-90 50.7497 28)" fill="#57E1FF" stroke="black"/>
<circle cx="11.9132" cy="44.0866" r="3.75" transform="rotate(-135 11.9132 44.0866)" fill="#57E1FF" stroke="black"/>
<circle cx="44.0865" cy="11.9135" r="3.75" transform="rotate(-135 44.0865 11.9135)" fill="#57E1FF" stroke="black"/>
</svg>
